<?xml version="1.0" encoding="utf-8"?>
<!-- Generator: Adobe Illustrator 17.0.0, SVG Export Plug-In . SVG Version: 6.00 Build 0)  -->
<!DOCTYPE svg PUBLIC "-//W3C//DTD SVG 1.1//EN" "http://www.w3.org/Graphics/SVG/1.1/DTD/svg11.dtd">
<svg version="1.1" id="Layer_1" xmlns="http://www.w3.org/2000/svg" xmlns:xlink="http://www.w3.org/1999/xlink" x="0px" y="0px"
	 width="297.638px" height="384.928px" viewBox="0 0 297.638 384.928" enable-background="new 0 0 297.638 384.928"
	 xml:space="preserve">
<rect x="191.812" y="233.979" fill="none" stroke="#2981B7" stroke-width="0.9921" stroke-linecap="round" stroke-linejoin="round" stroke-miterlimit="10" stroke-dasharray="0.9921,2.8346,0.9921,2.8346" width="133.419" height="49.176"/>
<line fill="none" stroke="#2981B7" stroke-width="2.8346" stroke-linecap="round" stroke-linejoin="round" stroke-miterlimit="10" x1="87.486" y1="258.036" x2="87.486" y2="293.457"/>
<polygon id="XMLID_118_" fill="#FFFFFF" stroke="#2981B7" stroke-width="0.9921" stroke-linecap="round" stroke-linejoin="round" stroke-miterlimit="10" points="
	64.215,209.414 66.007,209.414 85.694,209.414 89.279,209.414 108.965,209.414 110.758,209.414 151.187,57.474 149.394,57.474 
	89.279,57.474 85.694,57.474 25.579,57.474 23.786,57.474 "/>
<path id="XMLID_119_" display="none" fill="#FFFFFF" stroke="#444444" stroke-width="2.8346" stroke-linecap="round" stroke-linejoin="round" stroke-miterlimit="10" d="
	M68.182,210.453c0,0-3.525,19.49-4.61,48.235s24.406,26.611,18.983,56.712S41.297,334.925,33.2,328.145"/>
<line fill="none" stroke="#2981B7" stroke-width="0.5669" stroke-linecap="round" stroke-linejoin="round" stroke-miterlimit="10" x1="77.56" y1="209.414" x2="54.85" y2="57.459"/>
<line fill="none" stroke="#2981B7" stroke-width="0.5669" stroke-linecap="round" stroke-linejoin="round" stroke-miterlimit="10" x1="96.557" y1="209.414" x2="119.268" y2="57.459"/>
<path fill="#FFFFFF" stroke="#2981B7" stroke-width="0.9921" stroke-linecap="round" stroke-linejoin="round" stroke-miterlimit="10" d="
	M68.504,212.573v26.48c0,10.484,8.498,18.983,18.982,18.983s18.983-8.499,18.983-18.983v-26.48H68.504z"/>
<path id="XMLID_117_" fill="#F8FFFF" stroke="#2981B7" stroke-width="0.9921" stroke-linecap="round" stroke-linejoin="round" stroke-miterlimit="10" d="
	M118.618,209.414H65.592h-5.439H39.759v5.439c0,7.509,6.087,13.596,13.596,13.596h6.798h5.439h53.026h5.439h5.627
	c11.264,0,20.395,9.131,20.395,20.394c0,1.775-0.232,3.542-0.689,5.256c-2.028,7.604-2.052,15.604-0.068,23.22
	c6.341,24.343,31.215,38.937,55.558,32.596l62.463-16.27c0.898-0.234,1.525-1.045,1.525-1.974c0-1.126-0.913-2.039-2.039-2.039
	h-14.701c-1.156,0-2.308,0.148-3.427,0.439l-45.877,11.95c-19.983,5.205-40.402-6.775-45.607-26.758s6.775-40.402,26.758-45.607
	c3.077-0.802,6.245-1.207,9.425-1.207h61.183c7.509,0,13.596-6.087,13.596-13.596v-5.439H124.056L118.618,209.414L118.618,209.414z"
	/>
<line id="XMLID_7_" fill="none" stroke="#000000" stroke-miterlimit="10" x1="3.334" y1="383.928" x2="294.32" y2="383.928"/>
<line fill="none" stroke="#2981B7" stroke-width="2.8346" stroke-linecap="round" stroke-linejoin="round" stroke-miterlimit="10" x1="87.487" y1="299.749" x2="87.487" y2="304.83"/>
<line fill="none" stroke="#2981B7" stroke-width="2.8346" stroke-linecap="round" stroke-linejoin="round" stroke-miterlimit="10" x1="87.487" y1="311.397" x2="87.487" y2="313.752"/>
</svg>
