<?xml version="1.0" encoding="utf-8"?>
<!-- Generator: Adobe Illustrator 17.0.0, SVG Export Plug-In . SVG Version: 6.00 Build 0)  -->
<!DOCTYPE svg PUBLIC "-//W3C//DTD SVG 1.1//EN" "http://www.w3.org/Graphics/SVG/1.1/DTD/svg11.dtd">
<svg version="1.1" id="Layer_1" xmlns="http://www.w3.org/2000/svg" xmlns:xlink="http://www.w3.org/1999/xlink" x="0px" y="0px"
	 width="346.023px" height="387.755px" viewBox="235.042 0 346.023 387.755" enable-background="new 235.042 0 346.023 387.755"
	 xml:space="preserve">
<line fill="none" stroke="#2981B7" stroke-linecap="round" stroke-linejoin="round" stroke-miterlimit="10" stroke-dasharray="1.0006,2.8346,1.0006,2.8346" x1="291.415" y1="350.712" x2="572.877" y2="350.712"/>
<path fill="none" stroke="#2981B7" stroke-width="2.8346" stroke-linecap="round" stroke-linejoin="round" stroke-miterlimit="10" d="
	M436.133,124.019c0,0,0-14.859,0-41.673c0-42.755-34.66-77.414-77.414-77.414s-77.414,34.66-77.414,77.414
	c0,28.293,0,28.293,0,28.293"/>
<path fill="#FFFFFF" stroke="#2981B7" stroke-width="0.9921" stroke-linecap="round" stroke-linejoin="round" stroke-miterlimit="10" d="
	M457.437,158.788v-31.153c0-12.334-9.998-22.333-22.332-22.333c-12.334,0-22.333,9.999-22.333,22.333v31.153H457.437z"/>
<line fill="none" stroke="#2981B7" stroke-width="2.8346" stroke-linecap="round" stroke-linejoin="round" stroke-miterlimit="10" x1="281.304" y1="117.04" x2="281.304" y2="123.019"/>
<line fill="none" stroke="#2981B7" stroke-width="2.8346" stroke-linecap="round" stroke-linejoin="round" stroke-miterlimit="10" x1="281.304" y1="129.743" x2="281.304" y2="132.514"/>
<g>
	<line fill="none" stroke="#000000" stroke-miterlimit="10" x1="401.242" y1="17.101" x2="794.746" y2="17.101"/>
	<ellipse cx="401.432" cy="17.101" rx="3.806" ry="3.76"/>
	<rect x="794.24" y="13.851" width="1.012" height="6.5"/>
</g>
<g>
	<line fill="none" stroke="#000000" stroke-miterlimit="10" x1="495.971" y1="361.416" x2="794.752" y2="361.416"/>
	<circle cx="496.159" cy="361.416" r="3.76"/>
	<rect x="794.252" y="358.166" width="1" height="6.5"/>
</g>
<g id="XMLID_5_" display="none">
	<g display="inline">
		<polyline fill="none" stroke="#000000" stroke-miterlimit="10" points="572.877,370.214 572.877,376.214 566.877,376.214 		"/>
		
			<line fill="none" stroke="#000000" stroke-miterlimit="10" stroke-dasharray="11.7157,11.7157" x1="555.161" y1="376.214" x2="303.273" y2="376.214"/>
		<polyline fill="none" stroke="#000000" stroke-miterlimit="10" points="297.415,376.214 291.415,376.214 291.415,370.214 		"/>
		<polyline fill="none" stroke="#000000" stroke-miterlimit="10" points="291.415,352.617 291.415,346.617 297.415,346.617 		"/>
		
			<line fill="none" stroke="#000000" stroke-miterlimit="10" stroke-dasharray="11.7157,11.7157" x1="309.131" y1="346.617" x2="561.019" y2="346.617"/>
		<polyline fill="none" stroke="#000000" stroke-miterlimit="10" points="566.877,346.617 572.877,346.617 572.877,352.617 		"/>
	</g>
</g>
<g>
	
		<polygon id="XMLID_19_" fill="#F8FFFF" stroke="#2981B7" stroke-width="0.9921" stroke-linecap="round" stroke-linejoin="round" stroke-miterlimit="10" points="
		465.936,139.939 463.562,139.939 437.479,139.939 432.73,139.939 406.648,139.939 404.273,139.939 350.71,341.239 353.085,341.239 
		432.73,341.239 437.479,341.239 517.124,341.239 519.499,341.239 	"/>
	<polygon id="XMLID_2_" fill="#E6F4F4" points="465.936,139.928 463.562,139.928 448.256,139.928 478.343,341.228 517.123,341.228 
		519.499,341.228 	"/>
	<line fill="#EDF4F4" x1="448.256" y1="139.928" x2="478.343" y2="341.249"/>
	
		<line fill="#F8FFFF" stroke="#2981B7" stroke-width="0.9921" stroke-linecap="round" stroke-linejoin="round" stroke-miterlimit="10" x1="448.256" y1="139.939" x2="478.343" y2="341.26"/>
	
		<line fill="#F8FFFF" stroke="#2981B7" stroke-width="0.9921" stroke-linecap="round" stroke-linejoin="round" stroke-miterlimit="10" x1="423.087" y1="139.939" x2="392.998" y2="341.26"/>
	
		<polygon id="XMLID_3_" fill="none" stroke="#2981B7" stroke-width="0.9921" stroke-linecap="round" stroke-linejoin="round" stroke-miterlimit="10" points="
		465.936,139.939 463.562,139.939 437.479,139.939 432.73,139.939 406.648,139.939 404.273,139.939 350.71,341.239 353.085,341.239 
		432.73,341.239 437.479,341.239 517.124,341.239 519.499,341.239 	"/>
</g>
<g>
	<line fill="none" stroke="#000000" stroke-miterlimit="10" x1="466.872" y1="182.5" x2="794.252" y2="182.5"/>
	<circle cx="467.06" cy="182.5" r="3.76"/>
	<rect x="793.752" y="179.25" width="1" height="6.5"/>
</g>
<g>
	
		<line fill="none" stroke="#2981B7" stroke-width="2.8346" stroke-linecap="round" stroke-linejoin="round" stroke-miterlimit="10" x1="255.711" y1="174.349" x2="255.711" y2="168.37"/>
	
		<line fill="none" stroke="#2981B7" stroke-width="2.8346" stroke-linecap="round" stroke-linejoin="round" stroke-miterlimit="10" x1="255.711" y1="161.645" x2="255.711" y2="158.875"/>
	
		<path fill="none" stroke="#2981B7" stroke-width="2.8346" stroke-linecap="round" stroke-linejoin="round" stroke-miterlimit="10" d="
		M255.711,223.39c0,0,0-30.688,0-41.673"/>
	
		<path fill="none" stroke="#2981B7" stroke-width="0.2835" stroke-linecap="round" stroke-linejoin="round" stroke-miterlimit="10" d="
		M262.835,233.481c0.515,0,0.932,0.417,0.932,0.932v14.459c0,0.515-0.417,0.932-0.932,0.932l0,0c-0.515,0-0.932-0.417-0.932-0.932
		v-14.459C261.902,233.898,262.32,233.481,262.835,233.481L262.835,233.481z"/>
	
		<path fill="none" stroke="#2981B7" stroke-width="0.2835" stroke-linecap="round" stroke-linejoin="round" stroke-miterlimit="10" d="
		M248.587,233.481c0.515,0,0.932,0.417,0.932,0.932v14.459c0,0.515-0.417,0.932-0.932,0.932l0,0c-0.515,0-0.932-0.417-0.932-0.932
		v-14.459C247.655,233.898,248.072,233.481,248.587,233.481L248.587,233.481z"/>
	
		<path fill="#FFFFFF" stroke="#2981B7" stroke-width="0.5669" stroke-linecap="round" stroke-linejoin="round" stroke-miterlimit="10" d="
		M257.272,210.627c0.552,0,1,0.448,1,1v9.261c0,0.552-0.448,1-1,1h-3.123c-0.552,0-1-0.448-1-1v-9.261c0-0.552,0.448-1,1-1H257.272z
		"/>
	
		<path fill="#FFFFFF" stroke="#2981B7" stroke-width="0.9921" stroke-linecap="round" stroke-linejoin="round" stroke-miterlimit="10" d="
		M243.068,230.402c0,0.007,0.001,0.013,0.001,0.02h-0.039v6.607h25.36v-6.607h-0.038c0-0.007,0.001-0.013,0.001-0.02
		c0-6.982-5.66-12.643-12.643-12.643C248.729,217.76,243.068,223.42,243.068,230.402z"/>
</g>
<g>
	
		<line fill="none" stroke="#2981B7" stroke-width="2.8346" stroke-linecap="round" stroke-linejoin="round" stroke-miterlimit="10" x1="305.685" y1="174.349" x2="305.685" y2="168.37"/>
	
		<line fill="none" stroke="#2981B7" stroke-width="2.8346" stroke-linecap="round" stroke-linejoin="round" stroke-miterlimit="10" x1="305.685" y1="161.645" x2="305.685" y2="158.875"/>
	
		<path fill="none" stroke="#2981B7" stroke-width="2.8346" stroke-linecap="round" stroke-linejoin="round" stroke-miterlimit="10" d="
		M305.685,222.894c0,0,0-30.688,0-41.673"/>
	
		<path fill="#FFFFFF" stroke="#2981B7" stroke-width="0.5669" stroke-linecap="round" stroke-linejoin="round" stroke-miterlimit="10" d="
		M307.246,210.13c0.552,0,1,0.448,1,1v9.261c0,0.552-0.448,1-1,1h-3.123c-0.552,0-1-0.448-1-1v-9.261c0-0.552,0.448-1,1-1H307.246z"
		/>
	
		<path fill="#FFFFFF" stroke="#2981B7" stroke-width="0.9921" stroke-linecap="round" stroke-linejoin="round" stroke-miterlimit="10" d="
		M305.68,216.769c2.427-0.001,4.854-0.009,7.281,0.008c0.36,0.002,0.759,0.038,1.072,0.194c2.651,1.33,5.045,3.016,6.993,5.277
		c2.497,2.899,3.5,6.178,2.355,9.934c-1.487,4.879-3.048,9.736-4.512,14.622c-0.826,2.759-2.747,4.164-5.434,4.695
		c-5.672,1.121-11.327,1.257-16.92-0.464c-1.697-0.522-2.998-1.551-3.547-3.303c-1.761-5.628-3.608-11.233-5.185-16.913
		c-0.767-2.759,0.211-5.361,1.892-7.646c2.044-2.779,4.774-4.715,7.816-6.248c0.262-0.132,0.604-0.149,0.909-0.15
		C300.826,216.765,303.253,216.77,305.68,216.769z"/>
	
		<path fill="none" stroke="#2981B7" stroke-width="0.2835" stroke-linecap="round" stroke-linejoin="round" stroke-miterlimit="10" d="
		M298.884,226.47c0.552,0,1,0.448,1,1v2.076c0,0.552-0.448,1-1,1h-3.934c-0.552,0-1-0.448-1-1v-2.076c0-0.552,0.448-1,1-1H298.884z"
		/>
	
		<path fill="none" stroke="#2981B7" stroke-width="0.2835" stroke-linecap="round" stroke-linejoin="round" stroke-miterlimit="10" d="
		M316.914,226.47c0.552,0,1,0.448,1,1v2.076c0,0.552-0.448,1-1,1h-3.934c-0.552,0-1-0.448-1-1v-2.076c0-0.552,0.448-1,1-1H316.914z"
		/>
	
		<path fill="none" stroke="#2981B7" stroke-width="0.2835" stroke-linecap="round" stroke-linejoin="round" stroke-miterlimit="10" d="
		M303.328,241.692c0-0.66,0.406-1.195,0.906-1.195h1.881c0.501,0,0.906,0.535,0.906,1.195v4.7c0,0.66-0.406,1.195-0.906,1.195
		h-1.881c-0.501,0-0.906-0.535-0.906-1.195V241.692z"/>
</g>
</svg>
