<?xml version="1.0" encoding="utf-8"?>
<!-- Generator: Adobe Illustrator 17.0.0, SVG Export Plug-In . SVG Version: 6.00 Build 0)  -->
<!DOCTYPE svg PUBLIC "-//W3C//DTD SVG 1.1//EN" "http://www.w3.org/Graphics/SVG/1.1/DTD/svg11.dtd">
<svg version="1.1" id="Layer_1" xmlns="http://www.w3.org/2000/svg" xmlns:xlink="http://www.w3.org/1999/xlink" x="0px" y="0px"
	 width="346.023px" height="387.755px" viewBox="0 0 346.023 387.755" enable-background="new 0 0 346.023 387.755"
	 xml:space="preserve">
<line fill="none" stroke="#2981B7" stroke-linecap="round" stroke-linejoin="round" stroke-miterlimit="10" stroke-dasharray="1.0006,2.8346,1.0006,2.8346" x1="55.217" y1="350.685" x2="336.679" y2="350.685"/>
<path fill="none" stroke="#2981B7" stroke-width="2.8346" stroke-linecap="round" stroke-linejoin="round" stroke-miterlimit="10" d="
	M199.935,123.992c0,0,0-14.859,0-41.673c0-42.755-34.66-77.414-77.414-77.414s-77.414,34.66-77.414,77.414
	c0,28.293,0,28.293,0,28.293"/>
<path fill="#FFFFFF" stroke="#2981B7" stroke-width="0.9921" stroke-linecap="round" stroke-linejoin="round" stroke-miterlimit="10" d="
	M221.239,158.761v-31.153c0-12.334-9.998-22.333-22.332-22.333s-22.333,9.999-22.333,22.333v31.153H221.239z"/>
<line fill="none" stroke="#2981B7" stroke-width="2.8346" stroke-linecap="round" stroke-linejoin="round" stroke-miterlimit="10" x1="45.106" y1="117.013" x2="45.106" y2="122.992"/>
<line fill="none" stroke="#2981B7" stroke-width="2.8346" stroke-linecap="round" stroke-linejoin="round" stroke-miterlimit="10" x1="45.106" y1="129.716" x2="45.106" y2="132.487"/>
<g id="XMLID_5_" display="none">
	<g display="inline">
		<polyline fill="none" stroke="#000000" stroke-miterlimit="10" points="572.877,370.214 572.877,376.214 566.877,376.214 		"/>
		
			<line fill="none" stroke="#000000" stroke-miterlimit="10" stroke-dasharray="11.7157,11.7157" x1="555.161" y1="376.214" x2="303.273" y2="376.214"/>
		<polyline fill="none" stroke="#000000" stroke-miterlimit="10" points="297.415,376.214 291.415,376.214 291.415,370.214 		"/>
		<polyline fill="none" stroke="#000000" stroke-miterlimit="10" points="291.415,352.617 291.415,346.617 297.415,346.617 		"/>
		
			<line fill="none" stroke="#000000" stroke-miterlimit="10" stroke-dasharray="11.7157,11.7157" x1="309.131" y1="346.617" x2="561.019" y2="346.617"/>
		<polyline fill="none" stroke="#000000" stroke-miterlimit="10" points="566.877,346.617 572.877,346.617 572.877,352.617 		"/>
	</g>
</g>
<g>
	
		<polygon id="XMLID_19_" fill="#F8FFFF" stroke="#2981B7" stroke-width="0.9921" stroke-linecap="round" stroke-linejoin="round" stroke-miterlimit="10" points="
		229.738,139.912 227.364,139.912 201.281,139.912 196.532,139.912 170.45,139.912 168.075,139.912 114.512,341.212 
		116.887,341.212 196.532,341.212 201.281,341.212 280.926,341.212 283.301,341.212 	"/>
	<polygon id="XMLID_2_" fill="#E6F4F4" points="229.738,139.901 227.364,139.901 212.058,139.901 242.145,341.201 280.925,341.201 
		283.301,341.201 	"/>
	<line fill="none" x1="212.058" y1="139.901" x2="242.145" y2="341.222"/>
	
		<line fill="none" stroke="#2981B7" stroke-width="0.9921" stroke-linecap="round" stroke-linejoin="round" stroke-miterlimit="10" x1="212.058" y1="139.912" x2="242.145" y2="341.233"/>
	
		<line fill="none" stroke="#2981B7" stroke-width="0.9921" stroke-linecap="round" stroke-linejoin="round" stroke-miterlimit="10" x1="186.889" y1="139.912" x2="156.8" y2="341.233"/>
	
		<polygon id="XMLID_3_" fill="none" stroke="#2981B7" stroke-width="0.9921" stroke-linecap="round" stroke-linejoin="round" stroke-miterlimit="10" points="
		229.738,139.912 227.364,139.912 201.281,139.912 196.532,139.912 170.45,139.912 168.075,139.912 114.512,341.212 
		116.887,341.212 196.532,341.212 201.281,341.212 280.926,341.212 283.301,341.212 	"/>
</g>
<g>
	
		<line fill="none" stroke="#2981B7" stroke-width="2.8346" stroke-linecap="round" stroke-linejoin="round" stroke-miterlimit="10" x1="19.513" y1="174.322" x2="19.513" y2="168.343"/>
	
		<line fill="none" stroke="#2981B7" stroke-width="2.8346" stroke-linecap="round" stroke-linejoin="round" stroke-miterlimit="10" x1="19.513" y1="161.618" x2="19.513" y2="158.848"/>
	
		<path fill="none" stroke="#2981B7" stroke-width="2.8346" stroke-linecap="round" stroke-linejoin="round" stroke-miterlimit="10" d="
		M19.513,223.363c0,0,0-30.688,0-41.673"/>
	
		<path fill="none" stroke="#2981B7" stroke-width="0.2835" stroke-linecap="round" stroke-linejoin="round" stroke-miterlimit="10" d="
		M26.637,233.454c0.515,0,0.932,0.417,0.932,0.932v14.459c0,0.515-0.417,0.932-0.932,0.932l0,0c-0.515,0-0.932-0.417-0.932-0.932
		v-14.459C25.704,233.871,26.122,233.454,26.637,233.454L26.637,233.454z"/>
	
		<path fill="none" stroke="#2981B7" stroke-width="0.2835" stroke-linecap="round" stroke-linejoin="round" stroke-miterlimit="10" d="
		M12.389,233.454c0.515,0,0.932,0.417,0.932,0.932v14.459c0,0.515-0.417,0.932-0.932,0.932l0,0c-0.515,0-0.932-0.417-0.932-0.932
		v-14.459C11.457,233.871,11.874,233.454,12.389,233.454L12.389,233.454z"/>
	
		<path fill="#FFFFFF" stroke="#2981B7" stroke-width="0.5669" stroke-linecap="round" stroke-linejoin="round" stroke-miterlimit="10" d="
		M21.074,210.6c0.552,0,1,0.448,1,1v9.261c0,0.552-0.448,1-1,1h-3.123c-0.552,0-1-0.448-1-1V211.6c0-0.552,0.448-1,1-1H21.074z"/>
	
		<path fill="#FFFFFF" stroke="#2981B7" stroke-width="0.9921" stroke-linecap="round" stroke-linejoin="round" stroke-miterlimit="10" d="
		M6.87,230.375c0,0.007,0.001,0.013,0.001,0.02H6.832v6.607h25.36v-6.607h-0.038c0-0.007,0.001-0.013,0.001-0.02
		c0-6.982-5.66-12.643-12.643-12.643C12.531,217.733,6.87,223.393,6.87,230.375z"/>
</g>
<g>
	
		<line fill="none" stroke="#2981B7" stroke-width="2.8346" stroke-linecap="round" stroke-linejoin="round" stroke-miterlimit="10" x1="69.487" y1="174.322" x2="69.487" y2="168.343"/>
	
		<line fill="none" stroke="#2981B7" stroke-width="2.8346" stroke-linecap="round" stroke-linejoin="round" stroke-miterlimit="10" x1="69.487" y1="161.618" x2="69.487" y2="158.848"/>
	
		<path fill="none" stroke="#2981B7" stroke-width="2.8346" stroke-linecap="round" stroke-linejoin="round" stroke-miterlimit="10" d="
		M69.487,222.867c0,0,0-30.688,0-41.673"/>
	
		<path fill="#FFFFFF" stroke="#2981B7" stroke-width="0.5669" stroke-linecap="round" stroke-linejoin="round" stroke-miterlimit="10" d="
		M71.048,210.103c0.552,0,1,0.448,1,1v9.261c0,0.552-0.448,1-1,1h-3.123c-0.552,0-1-0.448-1-1v-9.261c0-0.552,0.448-1,1-1H71.048z"
		/>
	
		<path fill="#FFFFFF" stroke="#2981B7" stroke-width="0.9921" stroke-linecap="round" stroke-linejoin="round" stroke-miterlimit="10" d="
		M69.482,216.742c2.427-0.001,4.854-0.009,7.281,0.008c0.36,0.002,0.759,0.038,1.072,0.194c2.651,1.33,5.045,3.016,6.993,5.277
		c2.497,2.899,3.5,6.178,2.355,9.934c-1.487,4.879-3.048,9.736-4.512,14.622c-0.826,2.759-2.747,4.164-5.434,4.695
		c-5.672,1.121-11.327,1.257-16.92-0.464c-1.697-0.522-2.998-1.551-3.547-3.303c-1.761-5.628-3.608-11.233-5.185-16.913
		c-0.767-2.759,0.211-5.361,1.892-7.646c2.044-2.779,4.774-4.715,7.816-6.248c0.262-0.132,0.604-0.149,0.909-0.15
		C64.628,216.738,67.055,216.743,69.482,216.742z"/>
	
		<path fill="none" stroke="#2981B7" stroke-width="0.2835" stroke-linecap="round" stroke-linejoin="round" stroke-miterlimit="10" d="
		M62.686,226.443c0.552,0,1,0.448,1,1v2.076c0,0.552-0.448,1-1,1h-3.934c-0.552,0-1-0.448-1-1v-2.076c0-0.552,0.448-1,1-1H62.686z"
		/>
	
		<path fill="none" stroke="#2981B7" stroke-width="0.2835" stroke-linecap="round" stroke-linejoin="round" stroke-miterlimit="10" d="
		M80.716,226.443c0.552,0,1,0.448,1,1v2.076c0,0.552-0.448,1-1,1h-3.934c-0.552,0-1-0.448-1-1v-2.076c0-0.552,0.448-1,1-1H80.716z"
		/>
	
		<path fill="none" stroke="#2981B7" stroke-width="0.2835" stroke-linecap="round" stroke-linejoin="round" stroke-miterlimit="10" d="
		M67.13,241.665c0-0.66,0.406-1.195,0.906-1.195h1.881c0.501,0,0.906,0.535,0.906,1.195v4.7c0,0.66-0.406,1.195-0.906,1.195h-1.881
		c-0.501,0-0.906-0.535-0.906-1.195V241.665z"/>
</g>
</svg>
