<?xml version="1.0" encoding="utf-8"?>
<!-- Generator: Adobe Illustrator 17.0.0, SVG Export Plug-In . SVG Version: 6.00 Build 0)  -->
<!DOCTYPE svg PUBLIC "-//W3C//DTD SVG 1.1//EN" "http://www.w3.org/Graphics/SVG/1.1/DTD/svg11.dtd">
<svg version="1.1" id="Layer_1" xmlns="http://www.w3.org/2000/svg" xmlns:xlink="http://www.w3.org/1999/xlink" x="0px" y="0px"
	 width="297.638px" height="384.928px" viewBox="0 0 297.638 384.928" enable-background="new 0 0 297.638 384.928"
	 xml:space="preserve">
<line fill="none" stroke="#2981B7" stroke-width="2.8346" stroke-linecap="round" stroke-linejoin="round" stroke-miterlimit="10" x1="148.819" y1="40.124" x2="148.819" y2="151.781"/>
<path fill="#FFFFFF" stroke="#2981B7" stroke-width="0.9921" stroke-linecap="round" stroke-linejoin="round" stroke-miterlimit="10" d="
	M168.138,192.63v-26.48c0-10.484-8.498-18.983-18.982-18.983s-18.983,8.499-18.983,18.983v26.48H168.138z"/>
<rect id="XMLID_14_" x="67.715" y="26.572" fill="#F8FFFF" stroke="#2981B7" stroke-width="0.9921" stroke-linecap="round" stroke-linejoin="round" stroke-miterlimit="10" width="162.208" height="25.072"/>
<polygon id="XMLID_1_" fill="#FFFFFF" stroke="#2981B7" stroke-width="0.9921" stroke-linecap="round" stroke-linejoin="round" stroke-miterlimit="10" points="
	172.295,188.559 170.503,188.559 150.816,188.559 147.231,188.559 127.545,188.559 125.752,188.559 85.323,340.499 87.116,340.499 
	147.231,340.499 150.816,340.499 210.931,340.499 212.724,340.499 "/>
<line fill="none" stroke="#2981B7" stroke-width="0.5669" stroke-linecap="round" stroke-linejoin="round" stroke-miterlimit="10" x1="158.95" y1="188.559" x2="181.66" y2="340.514"/>
<line fill="none" stroke="#2981B7" stroke-width="0.5669" stroke-linecap="round" stroke-linejoin="round" stroke-miterlimit="10" x1="139.953" y1="188.559" x2="117.242" y2="340.514"/>
<line id="XMLID_7_" fill="none" stroke="#000000" stroke-miterlimit="10" x1="3.326" y1="383.928" x2="294.312" y2="383.928"/>
<line fill="none" stroke="#2981B7" stroke-linecap="round" stroke-linejoin="round" stroke-miterlimit="10" stroke-dasharray="1.0006,2.8346,1.0006,2.8346" x1="23.56" y1="22.306" x2="274.751" y2="22.306"/>
</svg>
