<?xml version="1.0" encoding="utf-8"?>
<!-- Generator: Adobe Illustrator 17.0.0, SVG Export Plug-In . SVG Version: 6.00 Build 0)  -->
<!DOCTYPE svg PUBLIC "-//W3C//DTD SVG 1.1//EN" "http://www.w3.org/Graphics/SVG/1.1/DTD/svg11.dtd">
<svg version="1.1" id="Layer_1" xmlns="http://www.w3.org/2000/svg" xmlns:xlink="http://www.w3.org/1999/xlink" x="0px" y="0px"
	 width="595.28px" height="595.28px" viewBox="0 123.305 595.28 595.28" enable-background="new 0 123.305 595.28 595.28"
	 xml:space="preserve">
<g>
	<path fill="#FFFFFF" d="M375.308,260.071H219.935c-47.638,0-86.614,38.976-86.614,86.614v148.521
		c0,47.638,38.976,86.614,86.614,86.614h155.373c47.638,0,86.614-38.976,86.614-86.614V346.685
		C461.922,299.047,422.946,260.071,375.308,260.071z M432.511,493.058c0,32.98-26.984,59.963-59.964,59.963H222.698
		c-32.98,0-59.963-26.984-59.963-59.963V348.832c0-32.98,26.984-59.963,59.963-59.963l149.849,0.001
		c32.98,0,59.964,26.984,59.964,59.963V493.058z"/>
	<path fill="#FFFFFF" d="M297.601,338.35c-45.628,0-82.615,36.987-82.615,82.615c0,45.628,36.988,82.616,82.616,82.616
		s82.615-36.987,82.615-82.615S343.23,338.35,297.601,338.35z M297.601,474.267c-29.438,0-53.301-23.863-53.301-53.301
		c0.001-29.439,23.863-53.301,53.302-53.302c29.438,0,53.301,23.863,53.301,53.301C350.903,450.403,327.04,474.266,297.601,474.267z
		"/>
	<circle fill="#FFFFFF" cx="384.659" cy="333.909" r="18.655"/>
</g>
</svg>
