<?xml version="1.0" encoding="utf-8"?>
<!-- Generator: Adobe Illustrator 17.0.0, SVG Export Plug-In . SVG Version: 6.00 Build 0)  -->
<!DOCTYPE svg PUBLIC "-//W3C//DTD SVG 1.1//EN" "http://www.w3.org/Graphics/SVG/1.1/DTD/svg11.dtd">
<svg version="1.1" id="Layer_1" xmlns="http://www.w3.org/2000/svg" xmlns:xlink="http://www.w3.org/1999/xlink" x="0px" y="0px"
	 width="528.217px" height="469.002px" viewBox="0 0 528.217 469.002" enable-background="new 0 0 528.217 469.002"
	 xml:space="preserve">
<g>
	<g id="XMLID_58_">
		<path id="XMLID_63_" fill="#FFFFFF" d="M85.563,7.411c0-2.85,2.278-5.41,5.41-5.41h66.893c35.01,0,63.762,28.465,63.762,62.908
			c0,35.296-28.751,64.043-63.476,64.043h-35.582v66.893c0,2.85-2.564,5.41-5.41,5.41H90.972c-3.132,0-5.41-2.56-5.41-5.41V7.411z
			 M155.587,94.228c15.939,0,29.319-12.812,29.319-29.605c0-15.658-13.379-27.612-29.319-27.612h-33.018v57.217H155.587z"/>
		<path id="XMLID_61_" fill="#FFFFFF" d="M254.096,7.411c0-2.85,2.278-5.41,5.41-5.41h26.187c2.846,0,5.41,2.56,5.41,5.41v159.688
			h72.585c3.132,0,5.41,2.56,5.41,5.406v23.342c0,2.85-2.278,5.41-5.41,5.41H259.506c-3.132,0-5.41-2.56-5.41-5.41V7.411z"/>
		<path id="XMLID_59_" fill="#FFFFFF" d="M422.055,105.329l-64.901-95.073c-2.278-3.703,0-8.255,4.552-8.255h29.037
			c2.274,0,3.699,1.421,4.552,2.56l45.544,65.472l45.544-65.472c0.853-1.139,2.278-2.56,4.556-2.56h29.319
			c4.552,0,6.831,4.552,4.552,8.255l-65.754,94.787v90.802c0,2.85-2.56,5.41-5.406,5.41h-26.191c-3.132,0-5.406-2.56-5.406-5.41
			V105.329z"/>
	</g>
	<g id="XMLID_51_">
		<path id="XMLID_56_" fill="#FFFFFF" d="M73.894,435.261l10.248-17.65c2.278-3.985,7.116-3.985,9.676-1.992
			c1.425,0.853,24.481,17.65,42.984,17.65c14.8,0,25.902-9.68,25.902-21.921c0-14.515-12.24-24.481-36.149-34.157
			c-26.759-10.815-53.514-27.898-53.514-61.483c0-25.334,18.785-54.653,64.047-54.653c29.033,0,51.235,14.8,56.927,19.071
			c2.846,1.707,3.703,6.545,1.711,9.395l-10.819,16.225c-2.278,3.413-6.545,5.692-9.962,3.413
			c-2.278-1.421-23.909-15.654-39.567-15.654c-16.225,0-25.048,10.815-25.048,19.924c0,13.379,10.534,22.488,33.589,31.879
			c27.608,11.101,59.491,27.612,59.491,64.333c0,29.319-25.334,56.359-65.468,56.359c-35.868,0-56.931-16.793-62.622-22.202
			C72.755,441.238,71.33,439.813,73.894,435.261z"/>
		<path id="XMLID_54_" fill="#FFFFFF" d="M239.86,269.31c0-2.85,2.278-5.41,5.41-5.41h115.854c3.132,0,5.406,2.56,5.406,5.41v23.338
			c0,2.85-2.274,5.41-5.406,5.41h-84.257v46.683h70.306c2.85,0,5.41,2.56,5.41,5.41v23.623c0,3.132-2.56,5.41-5.41,5.41h-70.306
			v49.815h84.257c3.132,0,5.406,2.56,5.406,5.406v23.341c0,2.85-2.274,5.41-5.406,5.41H245.269c-3.132,0-5.41-2.56-5.41-5.41V269.31
			z"/>
		<path id="XMLID_52_" fill="#FFFFFF" d="M434.013,298.058h-43.552c-3.132,0-5.41-2.56-5.41-5.41V269.31
			c0-2.85,2.278-5.41,5.41-5.41h124.391c3.132,0,5.41,2.56,5.41,5.41v23.338c0,2.85-2.278,5.41-5.41,5.41h-43.551v159.688
			c0,2.85-2.56,5.41-5.41,5.41h-26.469c-2.85,0-5.41-2.56-5.41-5.41V298.058z"/>
	</g>
	<rect id="XMLID_50_" x="2" y="2.001" fill="#FFFFFF" width="9.008" height="464"/>
</g>
</svg>
