<?xml version="1.0" encoding="utf-8"?>
<!-- Generator: Adobe Illustrator 17.0.0, SVG Export Plug-In . SVG Version: 6.00 Build 0)  -->
<!DOCTYPE svg PUBLIC "-//W3C//DTD SVG 1.1//EN" "http://www.w3.org/Graphics/SVG/1.1/DTD/svg11.dtd">
<svg version="1.1" id="Layer_1" xmlns="http://www.w3.org/2000/svg" xmlns:xlink="http://www.w3.org/1999/xlink" x="0px" y="0px"
	 width="629.999px" height="469.002px" viewBox="0 0 629.999 469.002" enable-background="new 0 0 629.999 469.002"
	 xml:space="preserve">
<g id="XRz64f_1_">
	<g>
		<path d="M84,0.001c0.042,1.663,0.12,3.326,0.12,4.99c0.006,153.007,0.006,306.014,0,459.021c0,1.663-0.078,3.326-0.12,4.99
			c-28,0-56,0-84,0c0-156.333,0-312.667,0-469C28,0.001,56,0.001,84,0.001z"/>
		<path d="M245,0.001c4.014,0.967,8.064,1.806,12.036,2.923c30.988,8.712,50.882,36.809,47.803,67.429
			c-3.025,30.083-29.929,55.704-61.077,57.499c-12.954,0.746-25.981,0.452-38.97,0.262c-4.242-0.062-5.298,1.307-5.259,5.383
			c0.192,19.656,0.099,39.316,0.079,58.975c-0.008,7.438-1.335,8.772-8.719,8.803c-7.83,0.033-15.661,0.08-23.49-0.027
			c-5.459-0.074-7.162-1.782-7.165-7.276c-0.033-62.141-0.066-124.282,0.138-186.422c0.008-2.52,2.363-5.032,3.624-7.548
			C191,0.001,218,0.001,245,0.001z M199.628,92.933c13.78,0,26.949,0.842,39.963-0.22c15.174-1.238,26.338-14.292,26.519-28.901
			c0.174-14.103-10.382-26.208-26.049-27.805c-12.352-1.259-24.898-0.691-37.357-0.662c-1.028,0.002-2.932,2.083-2.944,3.213
			C199.572,56.505,199.628,74.455,199.628,92.933z"/>
		<path d="M205,469.001c-6.309-1.301-12.67-2.391-18.915-3.945c-13.259-3.298-25.288-9.149-35.965-17.777
			c-3.801-3.071-4.462-6.196-1.75-10.321c3.2-4.867,6.103-9.928,9.181-14.875c3.681-5.917,6.75-6.426,12.828-3.167
			c8.924,4.785,17.863,9.638,27.166,13.591c8.202,3.485,17.027,4.778,25.933,2.395c8.889-2.378,16.028-7.171,18.32-16.533
			c2.277-9.303-0.93-17.712-8.551-22.971c-8.68-5.99-18.112-11.144-27.773-15.396c-14.373-6.326-28.809-12.324-40.579-23.098
			c-20.565-18.826-23.941-48.406-7.999-70.067c9.026-12.265,21.484-19.354,36.076-22.489c29.387-6.315,56.507-0.158,81.549,15.999
			c4.904,3.164,5.509,6.562,2.244,11.392c-3.451,5.104-6.974,10.168-10.671,15.095c-3.702,4.933-6.94,5.1-12.542,2.524
			c-10.535-4.843-21.114-9.71-32.03-13.562c-7.166-2.529-14.831-1.61-21.933,1.621c-14.433,6.567-17.532,22.03-6.13,33.019
			c4.469,4.307,9.991,7.829,15.585,10.594c9.079,4.489,18.667,7.934,27.938,12.052c11.766,5.226,22.985,11.395,32.278,20.529
			c23.674,23.271,21.684,59.135-4.377,79.7c-10.477,8.267-22.504,12.722-35.575,14.694c-1.453,0.219-2.872,0.659-4.307,0.996
			C218.333,469.001,211.667,469.001,205,469.001z"/>
		<path d="M626,0.001c4.28,4.179,4.365,5.691,0.468,11.019c-21.816,29.831-43.693,59.616-65.366,89.55
			c-1.696,2.343-2.791,5.696-2.812,8.589c-0.207,27.977-0.117,55.956-0.129,83.934c-0.003,6.845-1.286,8.135-8.199,8.176
			c-7.66,0.046-15.322,0.057-22.982-0.003c-6.532-0.051-7.961-1.479-7.966-7.942c-0.022-27.645-0.068-55.291,0.055-82.936
			c0.018-4.007-0.891-7.26-3.297-10.572c-21.521-29.632-42.816-59.427-64.333-89.062C448.485,6.686,448.079,3.396,452,0
			c12,0,24,0,36,0c1.65,2.052,3.379,4.047,4.939,6.166c14.218,19.323,28.403,38.669,42.606,58.003
			c1.029,1.401,2.12,2.757,3.488,4.532c7.238-9.849,13.993-19.118,20.831-28.326C569.878,26.894,579.951,13.457,589.999,0
			C602,0.001,614,0.001,626,0.001z"/>
		<path d="M376,0.001c1.063,2.966,3.042,5.928,3.053,8.897c0.19,50.495,0.136,100.991,0.136,151.487c0,1.958,0,3.917,0,6.289
			c2.326,0.103,4.101,0.249,5.877,0.25c22.831,0.016,45.663,0.001,68.494,0.017c7.512,0.005,8.713,1.212,8.743,8.699
			c0.026,6.166,0.068,12.333-0.018,18.498c-0.077,5.547-1.402,7.086-6.714,7.096c-36.33,0.065-72.66,0.035-108.99,0.028
			c-4.514-0.001-6.611-2.2-6.608-6.802c0.042-62.495-0.004-124.99,0.155-187.484c0.006-2.328,1.873-4.65,2.873-6.975
			C354,0.001,365,0.001,376,0.001z"/>
		<path d="M364.291,299.141c0,16.056,0,31.336,0,47.472c2.043,0,3.966,0,5.889,0c21.828,0,43.656-0.008,65.484,0.003
			c7.946,0.004,9.224,1.312,9.233,9.324c0.007,5.832,0.042,11.664-0.011,17.496c-0.054,5.959-1.736,7.624-7.814,7.632
			c-22.328,0.028-44.656,0.012-66.984,0.012c-1.793,0-3.585,0-5.691,0c0,16.95,0,33.374,0,50.73c1.878,0,3.779,0,5.681,0
			c26.994,0,53.987-0.008,80.98,0.006c7.485,0.004,8.64,1.194,8.652,8.737c0.01,6.165,0.069,12.332-0.023,18.495
			c-0.075,5.059-1.906,6.964-6.985,6.969c-40.323,0.046-80.647,0.046-120.971,0c-5.056-0.006-6.87-1.899-6.872-7.023
			c-0.029-62.318-0.029-124.637-0.004-186.955c0.002-5.569,1.574-7.149,7.184-7.154c40.157-0.035,80.314-0.035,120.471,0.002
			c5.446,0.005,7.118,1.746,7.183,7.22c0.073,6.164,0.032,12.33,0.013,18.494c-0.022,7.108-1.382,8.523-8.424,8.529
			c-26.827,0.023-53.654,0.01-80.481,0.01C368.829,299.141,366.855,299.141,364.291,299.141z"/>
		<path d="M571.286,299.141c0,2.687,0,4.642,0,6.597c0,49.147,0,98.294,0,147.441c0,12.869,0,12.869-12.623,12.869
			c-5.498,0-10.996,0.001-16.494,0c-9.596-0.003-10.357-0.742-10.357-10.129c-0.002-49.98,0-99.96-0.001-149.94
			c0-6.832-0.003-6.835-6.604-6.836c-11.162-0.002-22.324,0-33.487-0.001c-12.065,0-12.065-0.001-12.065-11.811
			c0-4.665-0.015-9.33,0.003-13.994c0.028-7.336,1.112-8.462,8.373-8.465c42.317-0.013,84.633-0.007,126.949-0.007
			c0.333,0,0.667-0.004,1,0.002c5.976,0.105,7.643,1.745,7.697,7.799c0.056,6.33,0.071,12.662-0.007,18.992
			c-0.069,5.677-1.814,7.433-7.531,7.461c-12.828,0.062-25.656,0.022-38.485,0.023C575.837,299.142,574.019,299.141,571.286,299.141
			z"/>
	</g>
</g>
</svg>
