<?xml version="1.0" encoding="utf-8"?>
<!-- Generator: Adobe Illustrator 17.0.0, SVG Export Plug-In . SVG Version: 6.00 Build 0)  -->
<!DOCTYPE svg PUBLIC "-//W3C//DTD SVG 1.1//EN" "http://www.w3.org/Graphics/SVG/1.1/DTD/svg11.dtd">
<svg version="1.1" id="Layer_1" xmlns="http://www.w3.org/2000/svg" xmlns:xlink="http://www.w3.org/1999/xlink" x="0px" y="0px"
	 width="736.09px" height="371.126px" viewBox="0 0 736.09 371.126" enable-background="new 0 0 736.09 371.126"
	 xml:space="preserve">
<g enable-background="new    ">
	<path fill="#010101" d="M9.101,16.895c0-1,0.8-1.899,1.9-1.899h40.703c1.1,0,1.9,0.899,1.9,1.899v8.201c0,1-0.8,1.899-1.9,1.899
		H22.102v18.802h24.701c1,0,1.9,0.899,1.9,1.899v8.201c0,1-0.9,1.9-1.9,1.9H22.102v25.301c0,1-0.9,1.9-1.9,1.9h-9.201
		c-1.1,0-1.9-0.9-1.9-1.9V16.895z"/>
	<path fill="#010101" d="M64.5,16.895c0-1,0.9-1.899,1.9-1.899h9.5c1.1,0,1.9,0.899,1.9,1.899v40.903c0,8.5,5.8,15.2,14.501,15.2
		c8.7,0,14.601-6.7,14.601-15.101V16.895c0-1,0.8-1.899,1.9-1.899h9.5c1,0,1.9,0.899,1.9,1.899v41.603
		c0,15.201-12.101,27.502-27.901,27.502c-15.701,0-27.802-12.301-27.802-27.502V16.895z"/>
	<path fill="#010101" d="M137.4,16.895c0-1,0.8-1.899,1.9-1.899h28.602c12,0,21.801,9.601,21.801,21.501
		c0,9.2-6.101,16.701-14.801,20.201l13.701,25.401c0.7,1.301,0,2.9-1.7,2.9h-10.5c-0.9,0-1.4-0.5-1.6-0.9l-13.301-26.501h-11.101
		v25.501c0,1-0.9,1.9-1.9,1.9h-9.201c-1.1,0-1.9-0.9-1.9-1.9V16.895z M166.801,46.896c5.3,0,9.9-4.6,9.9-10.2
		c0-5.301-4.6-9.701-9.9-9.701H150.5v19.901H166.801z"/>
	<path fill="#010101" d="M203.998,15.795c0-1,0.9-1.8,1.9-1.8h2.5l41.603,44.202h0.1V16.895c0-1,0.8-1.899,1.9-1.899h9.201
		c1,0,1.9,0.899,1.9,1.899v67.305c0,1-0.9,1.8-1.9,1.8h-2.4l-41.802-45.902h-0.1v43.002c0,1-0.8,1.9-1.9,1.9h-9.101
		c-1,0-1.9-0.9-1.9-1.9V15.795z"/>
	<path fill="#010101" d="M281.297,16.895c0-1,0.9-1.899,1.9-1.899h9.301c1,0,1.9,0.899,1.9,1.899v66.204c0,1-0.9,1.9-1.9,1.9h-9.301
		c-1,0-1.9-0.9-1.9-1.9V16.895z"/>
	<path fill="#010101" d="M321.997,26.995h-15.301c-1.1,0-1.9-0.899-1.9-1.899v-8.201c0-1,0.8-1.899,1.9-1.899h43.703
		c1.1,0,1.9,0.899,1.9,1.899v8.201c0,1-0.8,1.899-1.9,1.899h-15.301v56.104c0,1-0.9,1.9-1.9,1.9h-9.3c-1,0-1.9-0.9-1.9-1.9V26.995z"
		/>
	<path fill="#010101" d="M361.695,16.895c0-1,0.9-1.899,1.9-1.899h9.5c1.1,0,1.9,0.899,1.9,1.899v40.903c0,8.5,5.8,15.2,14.501,15.2
		c8.7,0,14.601-6.7,14.601-15.101V16.895c0-1,0.8-1.899,1.9-1.899h9.5c1,0,1.9,0.899,1.9,1.899v41.603
		c0,15.201-12.101,27.502-27.901,27.502c-15.701,0-27.802-12.301-27.802-27.502V16.895z"/>
	<path fill="#010101" d="M434.595,16.895c0-1,0.8-1.899,1.899-1.899h28.603c12,0,21.801,9.601,21.801,21.501
		c0,9.2-6.101,16.701-14.801,20.201l13.701,25.401c0.7,1.301,0,2.9-1.7,2.9h-10.501c-0.899,0-1.4-0.5-1.6-0.9l-13.301-26.501
		h-11.101v25.501c0,1-0.9,1.9-1.9,1.9h-9.201c-1.1,0-1.899-0.9-1.899-1.9V16.895z M463.996,46.896c5.301,0,9.9-4.6,9.9-10.2
		c0-5.301-4.6-9.701-9.9-9.701h-16.301v19.901H463.996z"/>
	<path fill="#010101" d="M501.193,16.895c0-1,0.8-1.899,1.899-1.899h40.703c1.1,0,1.9,0.899,1.9,1.899v8.201
		c0,1-0.801,1.899-1.9,1.899h-29.602v16.401h24.701c1,0,1.9,0.9,1.9,1.9v8.3c0,1.101-0.9,1.9-1.9,1.9h-24.701v17.501h29.602
		c1.1,0,1.9,0.9,1.9,1.9v8.2c0,1-0.801,1.9-1.9,1.9h-40.703c-1.1,0-1.899-0.9-1.899-1.9V16.895z"/>
	<path fill="#010101" d="M577.992,75.198l3.601-6.2c0.8-1.4,2.5-1.4,3.4-0.7c0.5,0.3,8.6,6.2,15.101,6.2
		c5.2,0,9.101-3.399,9.101-7.7c0-5.101-4.301-8.601-12.701-12.001c-9.4-3.8-18.801-9.8-18.801-21.601
		c0-8.901,6.601-19.201,22.501-19.201c10.201,0,18.001,5.2,20.002,6.7c1,0.6,1.3,2.3,0.6,3.3l-3.8,5.7c-0.801,1.2-2.301,2-3.501,1.2
		c-0.8-0.5-8.4-5.5-13.9-5.5c-5.7,0-8.801,3.8-8.801,7c0,4.7,3.7,7.9,11.801,11.201c9.7,3.9,20.901,9.7,20.901,22.602
		c0,10.3-8.9,19.801-23.002,19.801c-12.601,0-20.001-5.9-22.001-7.801C577.592,77.299,577.092,76.799,577.992,75.198z"/>
	<path fill="#010101" d="M636.292,16.895c0-1,0.8-1.899,1.899-1.899h40.703c1.1,0,1.9,0.899,1.9,1.899v8.201
		c0,1-0.801,1.899-1.9,1.899h-29.602v16.401h24.701c1,0,1.9,0.9,1.9,1.9v8.3c0,1.101-0.9,1.9-1.9,1.9h-24.701v17.501h29.602
		c1.1,0,1.9,0.9,1.9,1.9v8.2c0,1-0.801,1.9-1.9,1.9h-40.703c-1.1,0-1.899-0.9-1.899-1.9V16.895z"/>
	<path fill="#010101" d="M704.491,26.995h-15.301c-1.1,0-1.899-0.899-1.899-1.899v-8.201c0-1,0.8-1.899,1.899-1.899h43.703
		c1.1,0,1.9,0.899,1.9,1.899v8.201c0,1-0.801,1.899-1.9,1.899h-15.301v56.104c0,1-0.9,1.9-1.9,1.9h-9.301c-1,0-1.9-0.9-1.9-1.9
		V26.995z"/>
</g>
<g enable-background="new    ">
	<path fill="#010101" d="M104.442,121.283c0.144-0.576,0.72-1.008,1.296-1.008h1.152c0.504,0,1.08,0.359,1.224,0.792l14.257,39.675
		c0.144,0,0.216,0,0.36,0l14.041-39.675c0.144-0.433,0.72-0.792,1.224-0.792h1.152c0.576,0,1.152,0.432,1.296,1.008l9.289,48.388
		c0.216,1.009-0.216,1.729-1.296,1.729h-2.88c-0.576,0-1.152-0.504-1.296-1.008l-6.409-37.083c-0.072,0-0.216,0-0.288,0
		l-13.249,38.019c-0.144,0.433-0.792,0.792-1.224,0.792h-1.296c-0.432,0-1.08-0.359-1.224-0.792l-13.393-38.019
		c-0.072,0-0.216,0-0.288,0l-6.265,37.083c-0.072,0.504-0.72,1.008-1.296,1.008h-2.88c-1.08,0-1.512-0.72-1.296-1.729
		L104.442,121.283z"/>
	<path fill="#010101" d="M153.905,169.527l21.89-48.46c0.216-0.433,0.576-0.792,1.224-0.792h0.72c0.648,0,1.008,0.359,1.224,0.792
		l21.746,48.46c0.432,0.936-0.144,1.872-1.224,1.872h-2.88c-0.648,0-1.08-0.432-1.224-0.792l-5.329-11.881H164.49l-5.257,11.881
		c-0.144,0.36-0.576,0.792-1.224,0.792h-2.88C154.049,171.399,153.473,170.462,153.905,169.527z M188.108,154.261
		c-3.528-7.849-6.984-15.77-10.513-23.618h-0.576l-10.513,23.618H188.108z"/>
	<path fill="#010101" d="M205.313,163.838c0.36-0.433,0.72-0.937,1.08-1.368c0.72-0.937,1.512-1.512,2.52-0.648
		c0.504,0.433,5.761,5.473,12.169,5.473c5.833,0,9.649-3.672,9.649-7.921c0-4.968-4.32-7.92-12.601-11.377
		c-7.92-3.456-12.673-6.696-12.673-14.905c0-4.896,3.888-12.816,15.337-12.816c7.056,0,12.313,3.672,12.313,3.672
		c0.432,0.216,1.296,1.08,0.432,2.448c-0.288,0.432-0.576,0.937-0.864,1.368c-0.648,1.008-1.368,1.296-2.521,0.648
		c-0.504-0.288-5.04-3.312-9.433-3.312c-7.633,0-9.937,4.896-9.937,7.921c0,4.824,3.672,7.632,9.721,10.152
		c9.721,3.961,15.985,7.633,15.985,15.985c0,7.489-7.129,12.961-15.554,12.961c-8.497,0-14.257-4.968-15.193-5.832
		C205.169,165.783,204.449,165.207,205.313,163.838z"/>
	<path fill="#010101" d="M243.688,163.838c0.36-0.433,0.72-0.937,1.08-1.368c0.72-0.937,1.512-1.512,2.52-0.648
		c0.504,0.433,5.761,5.473,12.169,5.473c5.833,0,9.649-3.672,9.649-7.921c0-4.968-4.32-7.92-12.601-11.377
		c-7.92-3.456-12.673-6.696-12.673-14.905c0-4.896,3.888-12.816,15.337-12.816c7.056,0,12.313,3.672,12.313,3.672
		c0.432,0.216,1.296,1.08,0.432,2.448c-0.288,0.432-0.576,0.937-0.864,1.368c-0.648,1.008-1.368,1.296-2.521,0.648
		c-0.504-0.288-5.04-3.312-9.433-3.312c-7.633,0-9.937,4.896-9.937,7.921c0,4.824,3.672,7.632,9.721,10.152
		c9.721,3.961,15.985,7.633,15.985,15.985c0,7.489-7.129,12.961-15.554,12.961c-8.497,0-14.257-4.968-15.193-5.832
		C243.544,165.783,242.824,165.207,243.688,163.838z"/>
	<path fill="#010101" d="M301.287,122.363c0-0.72,0.576-1.368,1.296-1.368h16.129c13.897,0,25.274,11.305,25.274,25.13
		c0,13.97-11.377,25.274-25.274,25.274h-16.129c-0.72,0-1.296-0.648-1.296-1.368V122.363z M317.56,166.43
		c11.809,0,20.377-8.425,20.377-20.306c0-11.809-8.568-20.233-20.377-20.233h-10.801v40.539H317.56z"/>
	<path fill="#010101" d="M355.07,122.363c0-0.72,0.648-1.368,1.368-1.368h2.88c0.72,0,1.368,0.648,1.368,1.368v47.668
		c0,0.72-0.648,1.368-1.368,1.368h-2.88c-0.72,0-1.368-0.648-1.368-1.368V122.363z"/>
	<path fill="#010101" d="M372.134,163.838c0.359-0.433,0.72-0.937,1.08-1.368c0.72-0.937,1.512-1.512,2.52-0.648
		c0.504,0.433,5.761,5.473,12.169,5.473c5.833,0,9.649-3.672,9.649-7.921c0-4.968-4.32-7.92-12.602-11.377
		c-7.92-3.456-12.673-6.696-12.673-14.905c0-4.896,3.889-12.816,15.338-12.816c7.056,0,12.312,3.672,12.312,3.672
		c0.432,0.216,1.296,1.08,0.432,2.448c-0.287,0.432-0.575,0.937-0.863,1.368c-0.648,1.008-1.368,1.296-2.521,0.648
		c-0.504-0.288-5.04-3.312-9.433-3.312c-7.633,0-9.938,4.896-9.938,7.921c0,4.824,3.673,7.632,9.722,10.152
		c9.721,3.961,15.985,7.633,15.985,15.985c0,7.489-7.129,12.961-15.554,12.961c-8.497,0-14.257-4.968-15.193-5.832
		C371.989,165.783,371.27,165.207,372.134,163.838z"/>
	<path fill="#010101" d="M420.878,125.819h-12.529c-0.792,0-1.368-0.647-1.368-1.368v-2.088c0-0.72,0.576-1.368,1.368-1.368h30.53
		c0.793,0,1.368,0.648,1.368,1.368v2.088c0,0.721-0.575,1.368-1.368,1.368h-12.528v44.212c0,0.72-0.648,1.368-1.368,1.368h-2.736
		c-0.721,0-1.368-0.648-1.368-1.368V125.819z"/>
	<path fill="#010101" d="M448.165,122.363c0-0.72,0.576-1.368,1.368-1.368h18.649c8.641,0,15.697,6.769,15.697,15.337
		c0,6.625-4.393,12.169-10.657,14.689l9.865,18.29c0.504,0.936,0,2.088-1.225,2.088h-3.672c-0.648,0-1.008-0.36-1.152-0.648
		l-9.577-19.081h-13.753v18.361c0,0.72-0.647,1.368-1.368,1.368h-2.808c-0.792,0-1.368-0.648-1.368-1.368V122.363z M467.822,146.917
		c5.545,0,10.369-4.608,10.369-10.513c0-5.473-4.824-10.152-10.369-10.152h-13.969v20.665H467.822z"/>
	<path fill="#010101" d="M495.757,122.363c0-0.72,0.647-1.368,1.368-1.368h2.88c0.72,0,1.368,0.648,1.368,1.368v47.668
		c0,0.72-0.648,1.368-1.368,1.368h-2.88c-0.721,0-1.368-0.648-1.368-1.368V122.363z"/>
	<path fill="#010101" d="M516.061,122.363c0-0.72,0.576-1.368,1.368-1.368h15.769c8.785,0,14.762,5.688,14.762,13.249
		c0,5.545-3.672,9.577-7.057,11.521c3.816,1.584,8.641,5.112,8.641,11.736c0,8.065-6.408,13.897-15.697,13.897h-16.417
		c-0.792,0-1.368-0.648-1.368-1.368V122.363z M534.422,166.575c5.257,0,9.072-3.961,9.072-9.145c0-5.113-4.68-8.857-10.297-8.857
		h-11.881v18.002H534.422z M533.197,143.605c5.545,0,8.642-3.961,8.642-9.001c0-5.185-3.097-8.641-8.642-8.641h-11.736v17.642
		H533.197z"/>
	<path fill="#010101" d="M560.412,122.363c0-0.72,0.648-1.368,1.368-1.368h2.736c0.792,0,1.368,0.648,1.368,1.368v30.026
		c0,8.209,5.112,14.617,13.537,14.617c8.497,0,13.681-6.265,13.681-14.473v-30.171c0-0.72,0.576-1.368,1.368-1.368h2.736
		c0.721,0,1.368,0.648,1.368,1.368v30.459c0,10.944-7.776,19.297-19.153,19.297c-11.305,0-19.01-8.353-19.01-19.297V122.363z"/>
	<path fill="#010101" d="M619.74,125.819h-12.529c-0.792,0-1.368-0.647-1.368-1.368v-2.088c0-0.72,0.576-1.368,1.368-1.368h30.53
		c0.793,0,1.368,0.648,1.368,1.368v2.088c0,0.721-0.575,1.368-1.368,1.368h-12.528v44.212c0,0.72-0.648,1.368-1.368,1.368h-2.736
		c-0.721,0-1.368-0.648-1.368-1.368V125.819z"/>
	<path fill="#010101" d="M647.027,122.363c0-0.72,0.576-1.368,1.368-1.368h28.37c0.793,0,1.368,0.648,1.368,1.368v2.088
		c0,0.721-0.575,1.368-1.368,1.368h-24.193v17.569h20.665c0.721,0,1.368,0.648,1.368,1.368v2.089c0,0.792-0.647,1.368-1.368,1.368
		h-20.665v18.361h24.193c0.793,0,1.368,0.647,1.368,1.368v2.088c0,0.72-0.575,1.368-1.368,1.368h-28.37
		c-0.792,0-1.368-0.648-1.368-1.368V122.363z"/>
	<path fill="#010101" d="M689.651,122.363c0-0.72,0.576-1.368,1.296-1.368h16.129c13.897,0,25.274,11.305,25.274,25.13
		c0,13.97-11.377,25.274-25.274,25.274h-16.129c-0.72,0-1.296-0.648-1.296-1.368V122.363z M705.925,166.43
		c11.809,0,20.377-8.425,20.377-20.306c0-11.809-8.568-20.233-20.377-20.233h-10.802v40.539H705.925z"/>
</g>
<g enable-background="new    ">
	<path fill="#010101" d="M256.647,208.763c0-0.72,0.576-1.368,1.368-1.368h2.808c0.72,0,1.368,0.648,1.368,1.368v44.212h20.738
		c0.792,0,1.368,0.647,1.368,1.368v2.088c0,0.72-0.576,1.368-1.368,1.368h-24.914c-0.792,0-1.368-0.648-1.368-1.368V208.763z"/>
	<path fill="#010101" d="M313.457,206.675c14.401,0,25.922,11.593,25.922,25.994s-11.521,25.85-25.922,25.85
		s-25.85-11.448-25.85-25.85S299.056,206.675,313.457,206.675z M313.457,253.479c11.449,0,20.882-9.361,20.882-20.81
		c0-11.449-9.433-20.954-20.882-20.954c-11.449,0-20.81,9.505-20.81,20.954C292.648,244.118,302.008,253.479,313.457,253.479z"/>
	<path fill="#010101" d="M372.713,206.675c7.272,0,12.529,2.52,17.426,6.696c0.576,0.576,0.648,1.44,0.072,2.016l-1.945,1.944
		c-0.575,0.721-1.151,0.648-1.871-0.071c-3.744-3.24-8.857-5.401-13.754-5.401c-11.376,0-20.089,9.577-20.089,20.738
		c0,11.089,8.713,20.666,20.089,20.666c6.265,0,9.938-2.521,13.754-5.4c0.72-0.576,1.296-0.504,1.728-0.217l2.161,1.944
		c0.575,0.433,0.432,1.44-0.072,1.944c-4.896,4.753-11.09,6.984-17.498,6.984c-14.401,0-25.994-11.448-25.994-25.85
		S358.312,206.675,372.713,206.675z"/>
	<path fill="#010101" d="M394.381,255.927l21.891-48.46c0.216-0.433,0.576-0.792,1.224-0.792h0.72c0.648,0,1.009,0.359,1.225,0.792
		l21.746,48.46c0.432,0.936-0.145,1.872-1.225,1.872h-2.88c-0.647,0-1.08-0.432-1.224-0.792l-5.329-11.881h-25.562l-5.258,11.881
		c-0.143,0.36-0.575,0.792-1.223,0.792h-2.881C394.526,257.799,393.949,256.863,394.381,255.927z M428.584,240.662
		c-3.527-7.849-6.984-15.77-10.513-23.618h-0.576l-10.513,23.618H428.584z"/>
	<path fill="#010101" d="M449.029,208.763c0-0.72,0.576-1.368,1.369-1.368h2.808c0.72,0,1.368,0.648,1.368,1.368v44.212h20.738
		c0.791,0,1.367,0.647,1.367,1.368v2.088c0,0.72-0.576,1.368-1.367,1.368h-24.914c-0.793,0-1.369-0.648-1.369-1.368V208.763z"/>
	<path fill="#010101" d="M490.719,233.534l-17.354-24.051c-0.576-0.936,0-2.088,1.152-2.088h3.384c0.505,0,0.937,0.36,1.152,0.648
		l14.546,20.089l14.545-20.089c0.216-0.288,0.648-0.648,1.152-0.648h3.384c1.151,0,1.728,1.152,1.151,2.088l-17.568,23.979v22.97
		c0,0.72-0.648,1.368-1.369,1.368h-2.808c-0.792,0-1.368-0.648-1.368-1.368V233.534z"/>
	<path fill="#010101" d="M542.916,207.683c0.145-0.576,0.721-1.008,1.297-1.008h1.152c0.504,0,1.08,0.359,1.224,0.792l14.257,39.675
		c0.145,0,0.217,0,0.36,0l14.041-39.675c0.144-0.433,0.72-0.792,1.224-0.792h1.152c0.576,0,1.152,0.432,1.297,1.008l9.289,48.388
		c0.215,1.009-0.217,1.729-1.297,1.729h-2.881c-0.575,0-1.151-0.504-1.295-1.008l-6.409-37.083c-0.071,0-0.216,0-0.288,0
		l-13.249,38.019c-0.144,0.433-0.792,0.792-1.224,0.792h-1.297c-0.432,0-1.08-0.359-1.224-0.792l-13.394-38.019
		c-0.072,0-0.216,0-0.287,0l-6.266,37.083c-0.071,0.504-0.72,1.008-1.295,1.008h-2.881c-1.08,0-1.512-0.72-1.297-1.729
		L542.916,207.683z"/>
	<path fill="#010101" d="M592.379,255.927l21.891-48.46c0.216-0.433,0.576-0.792,1.224-0.792h0.72c0.648,0,1.009,0.359,1.225,0.792
		l21.746,48.46c0.432,0.936-0.145,1.872-1.225,1.872h-2.88c-0.647,0-1.08-0.432-1.224-0.792l-5.329-11.881h-25.562l-5.258,11.881
		c-0.143,0.36-0.575,0.792-1.223,0.792h-2.881C592.524,257.799,591.947,256.863,592.379,255.927z M626.582,240.662
		c-3.527-7.849-6.984-15.77-10.513-23.618h-0.576l-10.513,23.618H626.582z"/>
	<path fill="#010101" d="M647.027,208.763c0-0.72,0.576-1.368,1.296-1.368h16.13c13.896,0,25.273,11.305,25.273,25.13
		c0,13.97-11.377,25.274-25.273,25.274h-16.13c-0.72,0-1.296-0.648-1.296-1.368V208.763z M663.301,252.831
		c11.809,0,20.377-8.425,20.377-20.306c0-11.809-8.568-20.233-20.377-20.233H652.5v40.539H663.301z"/>
	<path fill="#010101" d="M700.811,208.763c0-0.72,0.576-1.368,1.369-1.368h28.369c0.793,0,1.369,0.648,1.369,1.368v2.088
		c0,0.721-0.576,1.368-1.369,1.368h-24.193v17.569h20.666c0.72,0,1.367,0.648,1.367,1.368v2.089c0,0.792-0.647,1.368-1.367,1.368
		h-20.666v18.361h24.193c0.793,0,1.369,0.647,1.369,1.368v2.088c0,0.72-0.576,1.368-1.369,1.368H702.18
		c-0.793,0-1.369-0.648-1.369-1.368V208.763z"/>
</g>
<g enable-background="new    ">
	<path fill="#010101" d="M250.096,293.075c14.401,0,25.922,11.593,25.922,25.994s-11.521,25.85-25.922,25.85
		s-25.85-11.448-25.85-25.85S235.695,293.075,250.096,293.075z M250.096,339.878c11.449,0,20.882-9.361,20.882-20.81
		c0-11.449-9.433-20.954-20.882-20.954c-11.449,0-20.81,9.505-20.81,20.954C229.287,330.517,238.648,339.878,250.096,339.878z"/>
	<path fill="#010101" d="M287.03,295.163c0-0.72,0.576-1.368,1.368-1.368h15.913c8.857,0,16.129,7.2,16.129,15.913
		c0,8.929-7.272,16.201-16.057,16.201h-11.881v16.922c0,0.72-0.648,1.368-1.368,1.368h-2.736c-0.792,0-1.368-0.648-1.368-1.368
		V295.163z M303.952,320.581c5.904,0,10.945-4.824,10.945-11.017c0-5.833-5.041-10.297-10.945-10.297h-11.449v21.313H303.952z"/>
	<path fill="#010101" d="M329.942,295.163c0-0.72,0.576-1.368,1.368-1.368h28.37c0.792,0,1.368,0.648,1.368,1.368v2.088
		c0,0.721-0.576,1.368-1.368,1.368h-24.194v17.569h20.666c0.72,0,1.368,0.648,1.368,1.368v2.089c0,0.792-0.648,1.368-1.368,1.368
		h-20.666v18.361h24.194c0.792,0,1.368,0.647,1.368,1.368v2.088c0,0.72-0.576,1.368-1.368,1.368h-28.37
		c-0.792,0-1.368-0.648-1.368-1.368V295.163z"/>
	<path fill="#010101" d="M372.566,294.371c0-0.721,0.648-1.296,1.368-1.296h1.8l32.476,40.467c0.071,0,0.071,0,0.144,0v-38.379
		c0-0.72,0.576-1.368,1.368-1.368h2.521c0.72,0,1.368,0.648,1.368,1.368v48.46c0,0.72-0.648,1.296-1.368,1.296h-1.296
		l-33.051-41.259h-0.072v39.171c0,0.72-0.576,1.368-1.368,1.368h-2.521c-0.72,0-1.368-0.648-1.368-1.368V294.371z"/>
	<path fill="#010101" d="M425.485,327.061v-1.368c0-0.792,0.576-1.368,1.368-1.368h15.05c0.792,0,1.368,0.576,1.368,1.368v1.368
		c0,0.721-0.576,1.296-1.368,1.296h-15.05C426.062,328.357,425.485,327.782,425.485,327.061z"/>
	<path fill="#010101" d="M450.038,336.638c0.359-0.433,0.72-0.937,1.08-1.368c0.72-0.937,1.512-1.512,2.52-0.648
		c0.504,0.433,5.761,5.473,12.169,5.473c5.833,0,9.649-3.672,9.649-7.921c0-4.968-4.32-7.92-12.602-11.377
		c-7.92-3.456-12.673-6.696-12.673-14.905c0-4.896,3.889-12.816,15.338-12.816c7.056,0,12.312,3.672,12.312,3.672
		c0.432,0.216,1.296,1.08,0.432,2.448c-0.287,0.432-0.575,0.937-0.863,1.368c-0.648,1.008-1.368,1.296-2.521,0.648
		c-0.504-0.288-5.04-3.312-9.433-3.312c-7.633,0-9.938,4.896-9.938,7.921c0,4.824,3.673,7.632,9.722,10.152
		c9.721,3.961,15.985,7.633,15.985,15.985c0,7.489-7.129,12.961-15.554,12.961c-8.497,0-14.257-4.968-15.193-5.832
		C449.894,338.583,449.174,338.006,450.038,336.638z"/>
	<path fill="#010101" d="M513.831,293.075c14.401,0,25.922,11.593,25.922,25.994s-11.521,25.85-25.922,25.85
		s-25.851-11.448-25.851-25.85S499.43,293.075,513.831,293.075z M513.831,339.878c11.449,0,20.882-9.361,20.882-20.81
		c0-11.449-9.433-20.954-20.882-20.954s-20.81,9.505-20.81,20.954C493.022,330.517,502.382,339.878,513.831,339.878z"/>
	<path fill="#010101" d="M550.117,295.163c0-0.72,0.648-1.368,1.368-1.368h2.736c0.792,0,1.368,0.648,1.368,1.368v30.026
		c0,8.209,5.112,14.617,13.537,14.617c8.497,0,13.681-6.265,13.681-14.473v-30.171c0-0.72,0.576-1.368,1.368-1.368h2.736
		c0.721,0,1.368,0.648,1.368,1.368v30.459c0,10.944-7.776,19.297-19.153,19.297c-11.305,0-19.01-8.353-19.01-19.297V295.163z"/>
	<path fill="#010101" d="M602.317,295.163c0-0.72,0.576-1.368,1.368-1.368h18.649c8.641,0,15.697,6.769,15.697,15.337
		c0,6.625-4.393,12.169-10.657,14.689l9.865,18.29c0.504,0.936,0,2.088-1.225,2.088h-3.672c-0.648,0-1.008-0.36-1.152-0.648
		l-9.577-19.081H607.86v18.361c0,0.72-0.647,1.368-1.368,1.368h-2.808c-0.792,0-1.368-0.648-1.368-1.368V295.163z M621.974,319.716
		c5.545,0,10.369-4.608,10.369-10.513c0-5.473-4.824-10.152-10.369-10.152h-13.969v20.665H621.974z"/>
	<path fill="#010101" d="M672.23,293.075c7.272,0,12.529,2.52,17.426,6.696c0.576,0.576,0.648,1.44,0.072,2.016l-1.944,1.944
		c-0.576,0.721-1.152,0.648-1.872-0.071c-3.744-3.24-8.856-5.401-13.753-5.401c-11.377,0-20.09,9.577-20.09,20.738
		c0,11.089,8.713,20.666,20.09,20.666c6.264,0,9.937-2.521,13.753-5.4c0.72-0.576,1.296-0.504,1.728-0.217l2.161,1.944
		c0.575,0.433,0.432,1.44-0.072,1.944c-4.896,4.753-11.089,6.984-17.498,6.984c-14.401,0-25.994-11.448-25.994-25.85
		S657.828,293.075,672.23,293.075z"/>
	<path fill="#010101" d="M700.811,295.163c0-0.72,0.576-1.368,1.368-1.368h28.37c0.793,0,1.368,0.648,1.368,1.368v2.088
		c0,0.721-0.575,1.368-1.368,1.368h-24.193v17.569h20.665c0.721,0,1.368,0.648,1.368,1.368v2.089c0,0.792-0.647,1.368-1.368,1.368
		h-20.665v18.361h24.193c0.793,0,1.368,0.647,1.368,1.368v2.088c0,0.72-0.575,1.368-1.368,1.368h-28.37
		c-0.792,0-1.368-0.648-1.368-1.368V295.163z"/>
</g>
</svg>
