<?xml version="1.0" encoding="utf-8"?>
<!-- Generator: Adobe Illustrator 17.0.0, SVG Export Plug-In . SVG Version: 6.00 Build 0)  -->
<!DOCTYPE svg PUBLIC "-//W3C//DTD SVG 1.1//EN" "http://www.w3.org/Graphics/SVG/1.1/DTD/svg11.dtd">
<svg version="1.1" id="Layer_1" xmlns="http://www.w3.org/2000/svg" xmlns:xlink="http://www.w3.org/1999/xlink" x="0px" y="0px"
	 width="595.28px" height="595.28px" viewBox="0 0 595.28 595.28" enable-background="new 0 0 595.28 595.28" xml:space="preserve">
<g id="Flat_copy">
	<path fill="#FFFFFF" d="M339.049,165.302c-29.578,10.771-48.273,38.526-46.153,68.904l0.707,11.72l-11.831-1.432
		c-43.065-5.506-80.698-24.165-112.657-55.51l-15.626-15.552l-4,11.478c-8.52,25.597-3.069,52.645,14.677,70.838
		c9.469,10.045,7.329,11.478-8.985,5.506c-5.674-1.916-10.659-3.348-11.124-2.623c-1.656,1.674,4.018,23.439,8.52,32.071
		c6.157,11.98,18.696,23.681,32.424,30.638l11.608,5.506l-13.747,0.205c-13.245,0-13.729,0.242-12.296,5.283
		c4.725,15.552,23.421,32.071,44.255,39.251l14.677,5.023l-12.78,7.664c-18.937,11.031-41.186,17.245-63.435,17.691
		c-10.659,0.242-19.421,1.191-19.421,1.916c0,2.381,28.89,15.775,45.669,21.058c50.413,15.552,110.294,8.836,155.256-17.71
		c31.959-18.9,63.9-56.477,78.819-92.864c8.055-19.365,16.091-54.784,16.091-71.768c0-11.013,0.707-12.445,13.952-25.597
		c7.813-7.664,15.142-16.035,16.575-18.416c2.381-4.558,2.121-4.558-9.934-0.484c-20.109,7.181-22.955,6.232-13.003-4.539
		c7.329-7.664,16.091-21.542,16.091-25.597c0-0.707-3.553,0.484-7.571,2.623c-4.26,2.4-13.729,5.99-20.835,8.129l-12.78,4.074
		l-11.589-7.925c-6.399-4.297-15.366-9.097-20.109-10.529C368.404,160.986,349.95,161.47,339.049,165.302z"/>
</g>
</svg>
