<?xml version="1.0" encoding="utf-8"?>
<!-- Generator: Adobe Illustrator 17.0.0, SVG Export Plug-In . SVG Version: 6.00 Build 0)  -->
<!DOCTYPE svg PUBLIC "-//W3C//DTD SVG 1.1//EN" "http://www.w3.org/Graphics/SVG/1.1/DTD/svg11.dtd">
<svg version="1.1" id="Layer_1" xmlns="http://www.w3.org/2000/svg" xmlns:xlink="http://www.w3.org/1999/xlink" x="0px" y="0px"
	 width="160px" height="160px" viewBox="0 0 160 160" enable-background="new 0 0 160 160" xml:space="preserve">
<g>
	<path d="M28.434,114.996c0-0.855,0.671-1.523,1.523-1.523c0.855,0,1.527,0.668,1.527,1.523v9.152c0,4.207,3.418,7.625,7.625,7.625
		c4.211,0,7.625-3.418,7.625-7.625v-9.152c0-0.855,0.672-1.523,1.528-1.523c0.855,0,1.523,0.668,1.523,1.523v18.301
		c0,0.855-0.668,1.527-1.523,1.527c-0.856,0-1.528-0.672-1.528-1.527v-1.649c-1.949,1.954-4.636,3.176-7.625,3.176
		c-5.918,0-10.675-4.762-10.675-10.676V114.996z"/>
	<path d="M56.379,126.281V104.93c0-0.856,0.672-1.524,1.523-1.524c0.856,0,1.528,0.668,1.528,1.524v21.351
		c0,4.879,2.316,5.492,5.183,5.492c0.856,0,1.528,0.668,1.528,1.524c0,0.855-0.672,1.527-1.528,1.527
		C61.074,134.824,56.379,133.906,56.379,126.281"/>
	<path d="M69.324,114.996c0-0.855,0.672-1.523,1.524-1.523c0.855,0,1.527,0.668,1.527,1.523v9.152c0,4.207,3.414,7.625,7.625,7.625
		s7.625-3.418,7.625-7.625v-9.152c0-0.855,0.672-1.523,1.523-1.523c0.856,0,1.528,0.668,1.528,1.523v18.301
		c0,0.855-0.672,1.527-1.528,1.527c-0.851,0-1.523-0.672-1.523-1.527v-1.649c-1.953,1.954-4.637,3.176-7.625,3.176
		c-5.918,0-10.676-4.762-10.676-10.676V114.996z"/>
	<path d="M97.27,126.281V104.93c0-0.856,0.668-1.524,1.523-1.524s1.523,0.668,1.523,1.524v21.351c0,4.879,2.321,5.492,5.188,5.492
		c0.851,0,1.527,0.668,1.527,1.524c0,0.855-0.676,1.527-1.527,1.527C101.965,134.824,97.27,133.906,97.27,126.281"/>
	<path d="M112.688,122.684h15.007c-0.672-3.481-3.781-6.161-7.504-6.161C116.473,116.523,113.359,119.203,112.688,122.684
		 M112.688,125.613c0.671,3.535,3.785,6.16,7.503,6.16c2.137,0,4.028-0.793,5.43-2.195c0.609-0.613,1.527-0.613,2.137,0
		c0.609,0.61,0.609,1.524,0,2.133c-1.953,1.949-4.578,3.113-7.567,3.113c-5.918,0-10.675-4.758-10.675-10.676
		s4.757-10.675,10.675-10.675c5.918,0,10.676,4.757,10.676,10.675c0,0.852-0.672,1.465-1.523,1.465H112.688z"/>
	<path fill="#FFFFFF" d="M80,73.02c-0.367,0-0.723,0.207-0.895,0.527c-2.851,5.312-8.476,8.746-14.578,8.746h-0.105
		c-4.442-0.035-8.578-1.781-11.692-4.93c-3.089-3.129-4.769-7.242-4.781-11.629v-0.078l-0.027-0.039h0.039
		c0.051-9.07,7.492-16.461,16.559-16.449h0.109c6.062,0.035,11.644,3.48,14.476,8.746l0.372,0.688
		c-1.223,1.535-1.946,3.293-1.946,5.152l0.008,0.101c0.02,1.997,0.859,3.879,2.27,5.5l0.187,0.079h0.008l0.187-0.079
		c1.414-1.621,2.25-3.503,2.27-5.5l0.008-0.101c0-1.859-0.723-3.617-1.946-5.152l0.372-0.688c2.832-5.266,8.414-8.711,14.476-8.746
		h0.109c9.067-0.012,16.508,7.379,16.559,16.449h0.039l-0.027,0.039v0.078c-0.012,4.387-1.692,8.5-4.778,11.629
		c-3.117,3.149-7.253,4.895-11.695,4.93h-0.105c-6.102,0-11.727-3.434-14.578-8.746C80.723,73.227,80.367,73.02,80,73.02L80,73.02z"
		/>
	<path fill="#949494" d="M96.387,52.371c-0.098,0.008-0.207,0.008-0.305,0.02c0.098-0.012,0.207-0.012,0.305-0.012V52.371"/>
	<path fill="#ADADAD" d="M63.609,52.371v0.008c0.11,0,0.207,0,0.317,0.008C63.816,52.379,63.719,52.379,63.609,52.371"/>
	<path fill-rule="evenodd" clip-rule="evenodd" fill="#00A6F0" d="M63.926,52.391c-0.106-0.008-0.211-0.012-0.317-0.016
		c0.032,0.559,0.555,1.094,1.055,1.547c0.609,0.578,1.004,1.129,1,2.066v0.008c-0.004,1.391-1.195,2.391-2.504,2.395h-0.008
		c-1.324-0.008-2.402-1.161-2.41-2.426l-0.004-0.043c-0.004-0.953,0.508-1.516,0.965-1.957c0.5-0.492,0.988-0.879,1.02-1.586
		c-5.84,0.25-10.485,5.074-10.446,10.973c0.043,6.035,4.969,10.894,11,10.851c6.035-0.039,10.891-4.965,10.852-11
		C74.09,57.441,69.586,52.758,63.926,52.391"/>
	<path d="M80,73.02c-0.367,0-0.723,0.207-0.895,0.527c-2.851,5.312-8.476,8.746-14.578,8.746h-0.105
		c-4.442-0.035-8.578-1.781-11.692-4.93c-3.089-3.129-4.769-7.242-4.781-11.629v-0.078l-0.027-0.039h0.039
		c0.051-9.07,7.492-16.461,16.559-16.449h0.109c6.062,0.035,11.644,3.48,14.476,8.746l0.372,0.688
		c-1.223,1.535-1.946,3.293-1.946,5.152l0.008,0.101c0.02,1.997,0.859,3.879,2.27,5.5l0.187,0.079h0.008l0.187-0.079
		c1.414-1.621,2.25-3.503,2.27-5.5l0.008-0.101c0-1.859-0.723-3.617-1.946-5.152l0.372-0.688c2.832-5.266,8.414-8.711,14.476-8.746
		h0.109c9.067-0.012,16.508,7.379,16.559,16.449h0.039l-0.027,0.039v0.078c-0.012,4.387-1.692,8.5-4.778,11.629
		c-3.117,3.149-7.253,4.895-11.695,4.93h-0.105c-6.102,0-11.727-3.434-14.578-8.746C80.723,73.227,80.367,73.02,80,73.02L80,73.02z
		 M80,96.535h0.465c0.449-0.004,0.894-0.027,1.344-0.043v1.68c0,0.855,0.671,1.527,1.523,1.527c0.856,0,1.523-0.672,1.523-1.527
		v-1.953c17.055-2.223,31.844-16.469,31.079-34.461V43.859c0-0.382-0.149-0.765-0.442-1.058s-0.676-0.442-1.058-0.442
		c-0.387,0-0.77,0.149-1.063,0.442l-2.519,2.519C104.445,34.91,92.754,27.93,80,28.016C67.246,27.93,55.555,34.91,49.148,45.32
		l-2.519-2.519c-0.293-0.293-0.676-0.442-1.063-0.442c-0.382,0-0.765,0.149-1.058,0.442s-0.442,0.676-0.442,1.058v17.899
		C43.301,79.75,58.09,93.996,75.145,96.219v1.953c0,0.855,0.667,1.527,1.523,1.527c0.855,0,1.523-0.672,1.523-1.527v-1.68
		c0.45,0.016,0.895,0.039,1.344,0.043H80z"/>
	<path fill="#00608B" d="M64.664,53.922c0.609,0.578,1.008,1.129,1,2.066v0.008c-0.004,1.391-1.195,2.391-2.504,2.395h-0.008
		c-1.324-0.008-2.402-1.161-2.41-2.426l-0.004-0.043c-0.004-0.953,0.508-1.516,0.965-1.957c0.504-0.492,0.988-0.879,1.02-1.586
		c-3.918,0.246-7.012,3.512-6.985,7.488c0.028,4.125,3.391,7.442,7.516,7.414c4.121-0.027,7.441-3.394,7.414-7.515
		c-0.027-3.856-2.98-7.016-6.742-7.375c-0.106-0.008-0.211-0.012-0.317-0.016C63.641,52.934,64.164,53.469,64.664,53.922"/>
	<path fill="#ADADAD" d="M96.391,52.371v0.008c-0.11,0-0.207,0-0.317,0.008C96.184,52.379,96.281,52.379,96.391,52.371"/>
	<path fill-rule="evenodd" clip-rule="evenodd" fill="#FF0000" d="M96.074,52.391c0.106-0.008,0.211-0.012,0.317-0.016
		c-0.032,0.559-0.555,1.094-1.055,1.547c-0.609,0.578-1.004,1.129-1,2.066v0.008c0.004,1.391,1.195,2.391,2.504,2.395h0.008
		c1.324-0.008,2.402-1.161,2.41-2.426l0.004-0.043c0.004-0.953-0.508-1.516-0.965-1.957c-0.5-0.492-0.988-0.879-1.02-1.586
		c5.84,0.25,10.485,5.074,10.446,10.973c-0.043,6.035-4.969,10.894-11,10.851c-6.035-0.039-10.891-4.965-10.852-11
		C85.91,57.441,90.414,52.758,96.074,52.391"/>
	<path fill="#AD0000" d="M95.336,53.922c-0.609,0.578-1.008,1.129-1,2.066v0.008c0.004,1.391,1.195,2.391,2.504,2.395h0.008
		c1.324-0.008,2.402-1.161,2.41-2.426l0.004-0.043c0.004-0.953-0.508-1.516-0.965-1.957c-0.5-0.492-0.988-0.879-1.02-1.586
		c3.918,0.246,7.012,3.512,6.985,7.488c-0.028,4.125-3.391,7.442-7.516,7.414c-4.121-0.027-7.441-3.394-7.414-7.515
		c0.027-3.856,2.98-7.016,6.742-7.375c0.106-0.008,0.211-0.012,0.317-0.016C96.359,52.934,95.836,53.469,95.336,53.922"/>
</g>
</svg>
