<?xml version="1.0" encoding="utf-8"?>
<!-- Generator: Adobe Illustrator 17.0.0, SVG Export Plug-In . SVG Version: 6.00 Build 0)  -->
<!DOCTYPE svg PUBLIC "-//W3C//DTD SVG 1.1//EN" "http://www.w3.org/Graphics/SVG/1.1/DTD/svg11.dtd">
<svg version="1.1" id="Layer_1" xmlns="http://www.w3.org/2000/svg" xmlns:xlink="http://www.w3.org/1999/xlink" x="0px" y="0px"
	 width="297.638px" height="384.928px" viewBox="0 0 297.638 384.928" enable-background="new 0 0 297.638 384.928"
	 xml:space="preserve">
<line fill="none" stroke="#2981B7" stroke-linecap="round" stroke-linejoin="round" stroke-miterlimit="10" stroke-dasharray="1.0006,2.8346,1.0006,2.8346" x1="63.129" y1="260.807" x2="63.129" y2="24.347"/>
<line id="XMLID_9_" fill="none" stroke="#000000" stroke-miterlimit="10" x1="3.326" y1="383.928" x2="294.312" y2="383.928"/>
<g>
	
		<polygon id="XMLID_19_" fill="#FFFFFF" stroke="#2981B7" stroke-width="0.9921" stroke-linecap="round" stroke-linejoin="round" stroke-miterlimit="10" points="
		185.936,184.837 184.144,184.837 164.457,184.837 160.872,184.837 141.186,184.837 139.393,184.837 98.964,336.777 
		100.757,336.777 160.872,336.777 164.457,336.777 224.572,336.777 226.365,336.777 	"/>
	
		<line fill="none" stroke="#2981B7" stroke-width="0.5669" stroke-linecap="round" stroke-linejoin="round" stroke-miterlimit="10" x1="172.591" y1="184.837" x2="195.301" y2="336.793"/>
	
		<line fill="none" stroke="#2981B7" stroke-width="0.5669" stroke-linecap="round" stroke-linejoin="round" stroke-miterlimit="10" x1="153.594" y1="184.837" x2="130.883" y2="336.793"/>
</g>
<g>
	
		<line fill="none" stroke="#2981B7" stroke-width="2.8346" stroke-linecap="round" stroke-linejoin="round" stroke-miterlimit="10" x1="162.665" y1="135.598" x2="162.665" y2="100.176"/>
	
		<path fill="#FFFFFF" stroke="#2981B7" stroke-width="0.9921" stroke-linecap="round" stroke-linejoin="round" stroke-miterlimit="10" d="
		M181.647,181.061v-26.48c0-10.484-8.498-18.983-18.982-18.983s-18.983,8.499-18.983,18.983v26.48H181.647z"/>
	
		<line fill="none" stroke="#2981B7" stroke-width="2.8346" stroke-linecap="round" stroke-linejoin="round" stroke-miterlimit="10" x1="162.665" y1="93.885" x2="162.665" y2="88.803"/>
	
		<line fill="none" stroke="#2981B7" stroke-width="2.8346" stroke-linecap="round" stroke-linejoin="round" stroke-miterlimit="10" x1="162.665" y1="82.237" x2="162.665" y2="79.882"/>
</g>
<path id="XMLID_20_" fill="#F8FFFF" stroke="#2981B7" stroke-width="0.9921" stroke-linecap="round" stroke-linejoin="round" stroke-miterlimit="10" d="
	M79.32,90.598H68.717v11.781v3.534v29.452v3.534v22.384c0,13.013,10.549,23.562,23.562,23.562h50.658h5.89h41.233h5.89h14.137
	v-7.069c0-6.506-5.274-11.781-11.781-11.781h-5.89h-2.356h-41.233h-5.89h-31.808c-13.013,0-23.562-10.549-23.562-23.562v-2.356
	v-5.89v-27.096v-5.89v-2.356C87.566,94.29,83.874,90.598,79.32,90.598z"/>
</svg>
